# xmcd
#
# Track frame offsets: 
#        150
#        14786
#        26821
#        39503
#        51925
#        66085
#        76386
#        88854
#        101610
#        112030
#
# Disc length: 1662 seconds
#
# Revision: 2
# Processed by: cddbd v1.5.2PL0 Copyright (c) Steve Scherf et al.
# Submitted via: ExactAudioCopy v0.95a5
#
DISCID=87067c0a
DTITLE=Diane Arkenstone and Misha Segal - Christmas Healing, Volume 3
DYEAR=2006
DGENRE=New Age
TTITLE0=The Christmas Song (Chestnut Roasting on an Open Fire)
TTITLE1=Winter Wonderland
TTITLE2=Silver Bells
TTITLE3=Let It Snow! Let It Snow! Let It Snow!
TTITLE4=Have Yourself a Merry Little Christmas
TTITLE5=Santa Claus is Coming to Town
TTITLE6=Do You Hear What I Hear?
TTITLE7=Jingle Bells
TTITLE8=Rudolph the Red-Nosed Reindeer
TTITLE9=White Christmas
EXTD=YEAR: 2006
EXTT0=
EXTT1=
EXTT2=
EXTT3=
EXTT4=
EXTT5=
EXTT6=
EXTT7=
EXTT8=
EXTT9=
PLAYORDER=
